<svg width="180" height="180" viewBox="0 0 180 180" fill="none" xmlns="http://www.w3.org/2000/svg">
<rect width="180" height="180" rx="10" fill="#4F46E5"/>
<path d="M116.313 60.8423C115.67 55.1274 113.013 50.7003 108.345 47.5611C103.676 44.3816 97.8002 42.7919 90.7169 42.7919C85.6459 42.7919 81.259 43.5968 77.5564 45.2067C73.8537 46.7763 70.9761 48.9496 68.9236 51.7266C66.9113 54.4633 65.9051 57.5824 65.9051 61.0838C65.9051 64.0218 66.5893 66.5573 67.9577 68.6903C69.3663 70.8234 71.1975 72.6143 73.4513 74.0632C75.7453 75.4718 78.2003 76.6591 80.8163 77.625C83.4323 78.5507 85.9477 79.3153 88.3625 79.919L100.436 83.0582C104.38 84.0241 108.425 85.3321 112.571 86.9822C116.716 88.6323 120.559 90.8056 124.101 93.5021C127.643 96.1986 130.5 99.5391 132.674 103.523C134.887 107.508 135.994 112.277 135.994 117.831C135.994 124.834 134.183 131.052 130.561 136.485C126.979 141.918 121.767 146.205 114.925 149.344C108.123 152.483 99.893 154.053 90.2339 154.053C80.9773 154.053 72.9683 152.584 66.2069 149.646C59.4456 146.708 54.1532 142.542 50.3298 137.149C46.5064 131.716 44.3935 125.277 43.991 117.831H62.7055C63.0677 122.298 64.5166 126.021 67.0521 128.999C69.6279 131.937 72.9079 134.131 76.8923 135.58C80.9169 136.988 85.3239 137.692 90.1132 137.692C95.3854 137.692 100.074 136.867 104.179 135.217C108.325 133.527 111.585 131.193 113.959 128.214C116.334 125.196 117.521 121.674 117.521 117.65C117.521 113.987 116.474 110.989 114.382 108.655C112.329 106.321 109.532 104.389 105.99 102.859C102.489 101.33 98.5247 99.9818 94.0976 98.8146L79.4882 94.8303C69.5876 92.1338 61.7396 88.1695 55.9442 82.9375C50.189 77.7055 47.3113 70.7831 47.3113 62.1704C47.3113 55.0469 49.2432 48.8288 53.1068 43.5163C56.9704 38.2038 62.2024 34.0786 68.8028 31.1406C75.4032 28.1624 82.8488 26.6733 91.1395 26.6733C99.5107 26.6733 106.896 28.1423 113.295 31.0803C119.734 34.0182 124.805 38.063 128.508 43.2145C132.211 48.3258 134.143 54.2017 134.304 60.8423H116.313Z" fill="white"/>
</svg>
